<svg width="900" height="320" viewBox="0 0 900 320" xmlns="http://www.w3.org/2000/svg" role="img" aria-label="Dataset matching">
  <defs>
    <linearGradient id="bg2" x1="0" y1="0" x2="1" y2="1">
      <stop offset="0%" stop-color="#fff6e8"/>
      <stop offset="100%" stop-color="#f4e2d3"/>
    </linearGradient>
  </defs>
  <rect width="900" height="320" rx="22" fill="url(#bg2)"/>
  <text x="32" y="44" font-size="18" font-family="Segoe UI, Arial" fill="#1d1a16">Species Matching View</text>

  <rect x="32" y="84" width="160" height="180" rx="16" fill="#ffffff" stroke="#1d1a16" stroke-width="1.5"/>
  <text x="52" y="120" font-size="12" font-family="Segoe UI, Arial" fill="#6b5a4a">Live Frame</text>
  <rect x="52" y="140" width="120" height="90" rx="10" fill="#f3e8dc"/>
  <circle cx="92" cy="184" r="8" fill="#c76b3c"/>
  <circle cx="132" cy="204" r="6" fill="#c76b3c"/>

  <rect x="224" y="84" width="420" height="180" rx="16" fill="#ffffff" stroke="#1d1a16" stroke-width="1.5"/>
  <text x="244" y="120" font-size="12" font-family="Segoe UI, Arial" fill="#6b5a4a">Dataset Species Tiles</text>
  <rect x="244" y="140" width="100" height="70" rx="10" fill="#f8f2e8" stroke="#e2cdb9"/>
  <rect x="360" y="140" width="100" height="70" rx="10" fill="#f8f2e8" stroke="#e2cdb9"/>
  <rect x="476" y="140" width="100" height="70" rx="10" fill="#f8f2e8" stroke="#e2cdb9"/>
  <text x="258" y="188" font-size="11" font-family="Segoe UI, Arial" fill="#9c8a78">Sparrow</text>
  <text x="380" y="188" font-size="11" font-family="Segoe UI, Arial" fill="#9c8a78">Pigeon</text>
  <text x="496" y="188" font-size="11" font-family="Segoe UI, Arial" fill="#9c8a78">Myna</text>

  <rect x="674" y="84" width="194" height="180" rx="16" fill="#1d1a16"/>
  <text x="694" y="120" font-size="12" font-family="Segoe UI, Arial" fill="#f2d7c6">Top Match</text>
  <text x="694" y="144" font-size="18" font-family="Segoe UI, Arial" fill="#ffffff">Sparrow</text>
  <rect x="694" y="170" width="150" height="12" rx="6" fill="#2d241b"/>
  <rect x="694" y="170" width="120" height="12" rx="6" fill="#c76b3c"/>
  <text x="694" y="196" font-size="11" font-family="Segoe UI, Arial" fill="#cbb7a5">Score 0.92</text>

  <line x1="192" y1="174" x2="224" y2="174" stroke="#1d1a16" stroke-width="2"/>
  <line x1="644" y1="174" x2="674" y2="174" stroke="#1d1a16" stroke-width="2"/>
</svg>
