<svg width="900" height="320" viewBox="0 0 900 320" xmlns="http://www.w3.org/2000/svg" role="img" aria-label="Pipeline overview">
  <defs>
    <linearGradient id="bg" x1="0" y1="0" x2="1" y2="1">
      <stop offset="0%" stop-color="#fef8ef"/>
      <stop offset="100%" stop-color="#f3e8dc"/>
    </linearGradient>
  </defs>
  <rect width="900" height="320" rx="22" fill="url(#bg)"/>
  <text x="32" y="44" font-size="18" font-family="Segoe UI, Arial" fill="#1d1a16">Real-Time Detection Pipeline</text>

  <rect x="32" y="80" width="180" height="180" rx="16" fill="#fff" stroke="#c76b3c" stroke-width="2"/>
  <text x="52" y="118" font-size="13" font-family="Segoe UI, Arial" fill="#6b5a4a">Video Feed</text>
  <text x="52" y="140" font-size="12" font-family="Segoe UI, Arial" fill="#9c8a78">Frames @ 30 FPS</text>
  <rect x="52" y="160" width="140" height="60" rx="10" fill="#f8f2e8" stroke="#e2cdb9"/>

  <rect x="250" y="80" width="200" height="180" rx="16" fill="#fff" stroke="#1d1a16" stroke-width="1.5"/>
  <text x="270" y="118" font-size="13" font-family="Segoe UI, Arial" fill="#6b5a4a">Feature Extraction</text>
  <text x="270" y="142" font-size="12" font-family="Segoe UI, Arial" fill="#9c8a78">SIFT + HOG</text>
  <circle cx="290" cy="182" r="6" fill="#c76b3c"/>
  <circle cx="320" cy="204" r="5" fill="#c76b3c"/>
  <circle cx="360" cy="176" r="4" fill="#c76b3c"/>
  <line x1="300" y1="220" x2="410" y2="180" stroke="#1d1a16" stroke-width="2"/>
  <line x1="300" y1="190" x2="410" y2="230" stroke="#1d1a16" stroke-width="2"/>

  <rect x="488" y="80" width="200" height="180" rx="16" fill="#fff" stroke="#1d1a16" stroke-width="1.5"/>
  <text x="508" y="118" font-size="13" font-family="Segoe UI, Arial" fill="#6b5a4a">Dataset Match</text>
  <text x="508" y="142" font-size="12" font-family="Segoe UI, Arial" fill="#9c8a78">Species Library</text>
  <rect x="508" y="164" width="160" height="20" rx="8" fill="#f1e4d6"/>
  <rect x="508" y="164" width="110" height="20" rx="8" fill="#c76b3c"/>
  <rect x="508" y="194" width="160" height="12" rx="6" fill="#f1e4d6"/>
  <rect x="508" y="194" width="130" height="12" rx="6" fill="#d7a483"/>

  <rect x="726" y="80" width="142" height="180" rx="16" fill="#1d1a16"/>
  <text x="746" y="118" font-size="13" font-family="Segoe UI, Arial" fill="#f2d7c6">Actuation</text>
  <text x="746" y="142" font-size="12" font-family="Segoe UI, Arial" fill="#cbb7a5">PWM Duty</text>
  <rect x="746" y="168" width="100" height="50" rx="10" fill="#2d241b"/>

  <line x1="212" y1="170" x2="250" y2="170" stroke="#1d1a16" stroke-width="2"/>
  <line x1="450" y1="170" x2="488" y2="170" stroke="#1d1a16" stroke-width="2"/>
  <line x1="688" y1="170" x2="726" y2="170" stroke="#1d1a16" stroke-width="2"/>
</svg>
